<svg width="41" height="35" viewBox="0 0 41 35" fill="none" xmlns="http://www.w3.org/2000/svg">
<path d="M29.0288 35C26.3728 34.3086 24.3949 32.7819 23.0952 30.4197C21.7954 28 21.1455 25.1481 21.1455 21.8642C21.1455 16.679 22.7844 12.214 26.062 8.46913C29.3961 4.66667 33.2671 1.84362 37.675 0L40.3875 4.49383L40.3028 5.35803C38.0988 6.16461 36.1492 7.89301 34.4539 10.5432C32.7585 13.1934 31.9109 15.9588 31.9109 18.8395C31.9109 20.6831 32.2782 22.2099 33.0128 23.4198C33.7475 24.572 34.7647 25.2058 36.0644 25.321L35.8101 27.0494L29.0288 35ZM8.3458 35C5.68979 34.3086 3.71191 32.7819 2.41215 30.4197C1.1124 28 0.462524 25.1481 0.462524 21.8642C0.462524 16.679 2.10134 12.214 5.37898 8.46913C8.71312 4.66667 12.5841 1.84362 16.992 0L19.7045 4.49383L19.6197 5.35803C17.4158 6.16461 15.4662 7.89301 13.7709 10.5432C12.0755 13.1934 11.2279 15.9588 11.2279 18.8395C11.2279 20.6831 11.5952 22.2099 12.3298 23.4198C13.0645 24.572 14.0817 25.2058 15.3814 25.321L15.1271 27.0494L8.3458 35Z" fill="#E4A30B"/>
</svg>
