<svg width="40" height="35" viewBox="0 0 40 35" fill="none" xmlns="http://www.w3.org/2000/svg">
<path d="M32.0249 0C34.6866 0.691359 36.6687 2.24692 37.9712 4.66667C39.2737 7.02881 39.925 9.85185 39.925 13.1358C39.925 18.321 38.2544 22.8148 34.9131 26.6173C31.6285 30.3621 27.7776 33.1564 23.3604 35L20.6421 30.5062L20.727 29.642C22.9356 28.8354 24.8894 27.107 26.5883 24.4568C28.2873 21.8066 29.1368 19.0412 29.1368 16.1605C29.1368 14.3169 28.7686 12.8189 28.0324 11.6667C27.2962 10.4568 26.2769 9.79424 24.9744 9.67901L25.2292 7.95062L32.0249 0ZM11.3829 0C14.0445 0.691359 16.0266 2.24692 17.3291 4.66667C18.6317 7.02881 19.2829 9.85185 19.2829 13.1358C19.2829 18.321 17.6123 22.8148 14.2711 26.6173C10.9865 30.3621 7.13553 33.1564 2.7183 35L0 30.5062L0.084947 29.642C2.29356 28.8354 4.24734 27.107 5.94628 24.4568C7.64521 21.8066 8.49468 19.0412 8.49468 16.1605C8.49468 14.3169 8.12658 12.8189 7.39037 11.6667C6.65417 10.4568 5.6348 9.79424 4.33229 9.67901L4.58713 7.95062L11.3829 0Z" fill="#E4A30B"/>
</svg>
